<svg width="300" height="300" viewBox="0 0 300 300" fill="none" xmlns="http://www.w3.org/2000/svg">
<rect x="5" y="5" width="290" height="290" rx="15" fill="#151515" stroke="white" stroke-width="10"/>
<path d="M88.8 210.34C88.8 215.56 87.36 217 82.14 217H70.62C65.4 217 63.96 215.56 63.96 210.34V164.26C63.96 156.34 64.32 153.1 66.48 145.9L82.86 91C85.02 83.44 86.82 82 96.18 82H102.66C112.02 82 113.82 83.44 115.98 91L132.36 145.9C134.52 152.92 134.88 156.34 134.88 164.26V210.34C134.88 215.56 133.44 217 128.22 217H116.7C111.48 217 110.04 215.56 110.04 210.34V186.58C110.04 184.06 109.32 183.34 106.8 183.34H92.04C89.52 183.34 88.8 184.06 88.8 186.58V210.34ZM107.34 158.14C109.32 158.14 110.4 157.42 110.4 155.8C110.4 154.9 110.22 154 110.04 153.1L101.76 118.36C101.4 116.56 101.04 116.2 99.42 116.2C97.8 116.2 97.44 116.56 97.08 118.36L88.8 153.1C88.62 154 88.44 154.9 88.44 155.8C88.44 157.42 89.52 158.14 91.5 158.14H107.34ZM170.447 217C165.227 217 163.787 215.56 163.787 210.34V88.66C163.787 83.44 165.227 82 170.447 82H196.007C222.107 82 233.987 91.72 233.987 113.5V123.94C233.987 133.3 230.927 139.96 224.627 145.72C224.087 146.26 223.907 146.44 223.907 146.8C223.907 147.16 224.087 147.34 224.627 147.88C231.467 153.46 234.887 159.4 234.887 168.94V186.4C234.887 207.28 222.467 217 195.107 217H170.447ZM188.627 110.44V131.14C188.627 133.66 189.347 134.38 191.867 134.38H195.647C204.467 134.38 208.427 131.32 208.427 123.4V118.18C208.427 110.26 204.467 107.2 195.647 107.2H191.867C189.347 107.2 188.627 107.92 188.627 110.44ZM196.547 191.8C205.367 191.8 209.327 188.74 209.327 180.82V170.56C209.327 162.64 205.367 159.58 196.547 159.58H191.867C189.347 159.58 188.627 160.3 188.627 162.82V188.56C188.627 191.08 189.347 191.8 191.867 191.8H196.547Z" fill="white"/>
</svg>
